<svg width="62" height="62" viewBox="0 0 62 62" fill="none" xmlns="http://www.w3.org/2000/svg">
    <path fill-rule="evenodd" clip-rule="evenodd"
        d="M31 5C36.4494 5 41.27 5.442 44.2033 6.118C50.0509 7.34473 54.6553 11.9491 55.882 17.7967C56.558 20.73 57 25.5506 57 31C57 36.4494 56.558 41.27 55.882 44.2033C54.6553 50.0509 50.0509 54.6553 44.2033 55.882C41.27 56.558 36.4494 57 31 57C25.5506 57 20.73 56.558 17.7967 55.882C11.9491 54.6553 7.34473 50.0509 6.118 44.2033C5.442 41.27 5 36.4494 5 31C5 25.5506 5.442 20.73 6.118 17.7967C7.34473 11.9491 11.9491 7.34473 17.7967 6.118C20.73 5.442 25.5506 5 31 5ZM34.433 42.59C35.707 42.8571 36.7541 43.7411 37.2481 44.9158V44.9146C37.41 45.3022 37.8059 45.5398 38.2243 45.502L38.5469 45.4712C40.5832 45.268 42.1834 44.9843 43.1194 44.6522C43.7446 44.4171 44.1889 43.8143 44.1889 43.1076L44.1878 43.0556L44.1807 42.9492C44.1783 42.9315 44.1771 42.9138 44.1771 42.8961C44.0176 40.7735 42.7294 35.8052 40.8042 30.1348C38.6037 23.6525 36.3015 18.4041 35.2627 17.3782C35.0984 17.2069 34.9081 17.0627 34.6966 16.9516C34.594 16.8956 34.4863 16.8493 34.3751 16.8133C33.6944 16.5841 32.4357 16.4292 30.9975 16.4292C29.5592 16.4292 28.3029 16.5841 27.6116 16.8181C27.4875 16.8606 27.3835 16.9055 27.3008 16.9528C27.0895 17.0639 26.8976 17.2084 26.7323 17.3806C25.6947 18.4041 23.3937 23.6525 21.1931 30.1348C19.2679 35.8063 17.9786 40.7735 17.8202 42.8961L17.8155 42.9693L17.8108 43.0568L17.8096 43.1088C17.8102 43.4454 17.9134 43.7739 18.1056 44.0503C18.2978 44.3267 18.5697 44.538 18.885 44.6558C19.8163 44.9867 21.4188 45.2692 23.4575 45.4724L23.7399 45.4996C24.1772 45.5398 24.5897 45.294 24.7622 44.891C25.2598 43.7292 26.3009 42.8559 27.5667 42.59C28.3301 42.4139 29.5828 42.2992 30.9998 42.2992C32.4168 42.2992 33.6707 42.4139 34.433 42.59Z"
        fill="#00B388" />
</svg>